<?xml version="1.0" ?><svg data-name="Layer 1" id="Layer_1" viewBox="0 0 512 512" xmlns="http://www.w3.org/2000/svg" xmlns:xlink="http://www.w3.org/1999/xlink"><defs><style>.cls-1{fill:url(#linear-gradient);}.cls-2{fill:url(#linear-gradient-2);}.cls-3{fill:url(#linear-gradient-3);}.cls-4{fill:url(#linear-gradient-4);}</style><linearGradient gradientUnits="userSpaceOnUse" id="linear-gradient" x1="-1.347" x2="510.699" y1="513.347" y2="1.301"><stop offset="0" stop-color="#111"/><stop offset="1" stop-color="#323232"/></linearGradient><linearGradient gradientUnits="userSpaceOnUse" id="linear-gradient-2" x1="153.06" x2="368.112" y1="376.967" y2="161.914"><stop offset="0" stop-color="#b5053c"/><stop offset="0.233" stop-color="#c90441"/><stop offset="0.737" stop-color="#f0014b"/><stop offset="1" stop-color="#ff004f"/></linearGradient><linearGradient gradientUnits="userSpaceOnUse" id="linear-gradient-3" x1="136.192" x2="362.722" y1="366.084" y2="139.555"><stop offset="0" stop-color="#00b2c9"/><stop offset="0.283" stop-color="#00c8d4"/><stop offset="0.741" stop-color="#00e6e4"/><stop offset="1" stop-color="#00f1ea"/></linearGradient><linearGradient gradientUnits="userSpaceOnUse" id="linear-gradient-4" x1="9.279" x2="510.704" y1="506.873" y2="5.448"><stop offset="0" stop-color="#dde3e4"/><stop offset="1" stop-color="#fcf7f7"/></linearGradient></defs><title/><path class="cls-1" d="M256,0C114.615,0,0,114.615,0,256S114.615,512,256,512,512,397.385,512,256,397.385,0,256,0Z"/><path class="cls-2" d="M393.729,187.531a72.364,72.364,0,0,1-72.365-72.364h-51.7V317.615a43.964,43.964,0,1,1-31.547-42.221V225.138a93.308,93.308,0,1,0,80.839,92.477l1.5-102.332a123.5,123.5,0,0,0,73.267,23.946Z"/><path class="cls-3" d="M380.062,173.448A72.364,72.364,0,0,1,307.7,101.083H256V303.531a43.964,43.964,0,1,1-31.547-42.22V211.054a93.308,93.308,0,1,0,80.839,92.477L306.8,201.2a123.5,123.5,0,0,0,73.267,23.945Z"/><path class="cls-4" d="M380.062,186.237a72.365,72.365,0,0,1-44.615-28.176,72.346,72.346,0,0,1-26.375-42.894H269.667V317.615a44.015,44.015,0,0,1-81.653,22.815,44.018,44.018,0,0,1,36.439-79.119V224.328a93.3,93.3,0,0,0-72.236,150.841,93.3,93.3,0,0,0,153.075-71.638L306.8,201.2a123.5,123.5,0,0,0,73.267,23.945Z"/></svg>